<svg xmlns="http://www.w3.org/2000/svg" viewBox="0 0 1000 205" width="1000" height="205" role="img" aria-label="ASTTR0 rendered in FIGlet ANSI Shadow style">
  <defs>
    <pattern id="scanlines" width="4" height="4" patternUnits="userSpaceOnUse"><rect width="4" height="1" fill="#fff" opacity=".025"/></pattern>
    <g id="ascii" fill="currentColor" font-family="Consolas,'DejaVu Sans Mono','Courier New',monospace" font-size="28" font-weight="700"><text x="104.00" y="38" text-anchor="middle">█</text><text x="120.50" y="38" text-anchor="middle">█</text><text x="137.00" y="38" text-anchor="middle">█</text><text x="153.50" y="38" text-anchor="middle">█</text><text x="170.00" y="38" text-anchor="middle">█</text><text x="186.50" y="38" text-anchor="middle">╗</text><text x="219.50" y="38" text-anchor="middle">█</text><text x="236.00" y="38" text-anchor="middle">█</text><text x="252.50" y="38" text-anchor="middle">█</text><text x="269.00" y="38" text-anchor="middle">█</text><text x="285.50" y="38" text-anchor="middle">█</text><text x="302.00" y="38" text-anchor="middle">█</text><text x="318.50" y="38" text-anchor="middle">█</text><text x="335.00" y="38" text-anchor="middle">╗</text><text x="351.50" y="38" text-anchor="middle">█</text><text x="368.00" y="38" text-anchor="middle">█</text><text x="384.50" y="38" text-anchor="middle">█</text><text x="401.00" y="38" text-anchor="middle">█</text><text x="417.50" y="38" text-anchor="middle">█</text><text x="434.00" y="38" text-anchor="middle">█</text><text x="450.50" y="38" text-anchor="middle">█</text><text x="467.00" y="38" text-anchor="middle">█</text><text x="483.50" y="38" text-anchor="middle">╗</text><text x="500.00" y="38" text-anchor="middle">█</text><text x="516.50" y="38" text-anchor="middle">█</text><text x="533.00" y="38" text-anchor="middle">█</text><text x="549.50" y="38" text-anchor="middle">█</text><text x="566.00" y="38" text-anchor="middle">█</text><text x="582.50" y="38" text-anchor="middle">█</text><text x="599.00" y="38" text-anchor="middle">█</text><text x="615.50" y="38" text-anchor="middle">█</text><text x="632.00" y="38" text-anchor="middle">╗</text><text x="648.50" y="38" text-anchor="middle">█</text><text x="665.00" y="38" text-anchor="middle">█</text><text x="681.50" y="38" text-anchor="middle">█</text><text x="698.00" y="38" text-anchor="middle">█</text><text x="714.50" y="38" text-anchor="middle">█</text><text x="731.00" y="38" text-anchor="middle">█</text><text x="747.50" y="38" text-anchor="middle">╗</text><text x="797.00" y="38" text-anchor="middle">█</text><text x="813.50" y="38" text-anchor="middle">█</text><text x="830.00" y="38" text-anchor="middle">█</text><text x="846.50" y="38" text-anchor="middle">█</text><text x="863.00" y="38" text-anchor="middle">█</text><text x="879.50" y="38" text-anchor="middle">█</text><text x="896.00" y="38" text-anchor="middle">╗</text><text x="87.50" y="67" text-anchor="middle">█</text><text x="104.00" y="67" text-anchor="middle">█</text><text x="120.50" y="67" text-anchor="middle">╔</text><text x="137.00" y="67" text-anchor="middle">═</text><text x="153.50" y="67" text-anchor="middle">═</text><text x="170.00" y="67" text-anchor="middle">█</text><text x="186.50" y="67" text-anchor="middle">█</text><text x="203.00" y="67" text-anchor="middle">╗</text><text x="219.50" y="67" text-anchor="middle">█</text><text x="236.00" y="67" text-anchor="middle">█</text><text x="252.50" y="67" text-anchor="middle">╔</text><text x="269.00" y="67" text-anchor="middle">═</text><text x="285.50" y="67" text-anchor="middle">═</text><text x="302.00" y="67" text-anchor="middle">═</text><text x="318.50" y="67" text-anchor="middle">═</text><text x="335.00" y="67" text-anchor="middle">╝</text><text x="351.50" y="67" text-anchor="middle">╚</text><text x="368.00" y="67" text-anchor="middle">═</text><text x="384.50" y="67" text-anchor="middle">═</text><text x="401.00" y="67" text-anchor="middle">█</text><text x="417.50" y="67" text-anchor="middle">█</text><text x="434.00" y="67" text-anchor="middle">╔</text><text x="450.50" y="67" text-anchor="middle">═</text><text x="467.00" y="67" text-anchor="middle">═</text><text x="483.50" y="67" text-anchor="middle">╝</text><text x="500.00" y="67" text-anchor="middle">╚</text><text x="516.50" y="67" text-anchor="middle">═</text><text x="533.00" y="67" text-anchor="middle">═</text><text x="549.50" y="67" text-anchor="middle">█</text><text x="566.00" y="67" text-anchor="middle">█</text><text x="582.50" y="67" text-anchor="middle">╔</text><text x="599.00" y="67" text-anchor="middle">═</text><text x="615.50" y="67" text-anchor="middle">═</text><text x="632.00" y="67" text-anchor="middle">╝</text><text x="648.50" y="67" text-anchor="middle">█</text><text x="665.00" y="67" text-anchor="middle">█</text><text x="681.50" y="67" text-anchor="middle">╔</text><text x="698.00" y="67" text-anchor="middle">═</text><text x="714.50" y="67" text-anchor="middle">═</text><text x="731.00" y="67" text-anchor="middle">█</text><text x="747.50" y="67" text-anchor="middle">█</text><text x="764.00" y="67" text-anchor="middle">╗</text><text x="780.50" y="67" text-anchor="middle">█</text><text x="797.00" y="67" text-anchor="middle">█</text><text x="813.50" y="67" text-anchor="middle">╔</text><text x="830.00" y="67" text-anchor="middle">═</text><text x="846.50" y="67" text-anchor="middle">█</text><text x="863.00" y="67" text-anchor="middle">█</text><text x="879.50" y="67" text-anchor="middle">█</text><text x="896.00" y="67" text-anchor="middle">█</text><text x="912.50" y="67" text-anchor="middle">╗</text><text x="87.50" y="96" text-anchor="middle">█</text><text x="104.00" y="96" text-anchor="middle">█</text><text x="120.50" y="96" text-anchor="middle">█</text><text x="137.00" y="96" text-anchor="middle">█</text><text x="153.50" y="96" text-anchor="middle">█</text><text x="170.00" y="96" text-anchor="middle">█</text><text x="186.50" y="96" text-anchor="middle">█</text><text x="203.00" y="96" text-anchor="middle">║</text><text x="219.50" y="96" text-anchor="middle">█</text><text x="236.00" y="96" text-anchor="middle">█</text><text x="252.50" y="96" text-anchor="middle">█</text><text x="269.00" y="96" text-anchor="middle">█</text><text x="285.50" y="96" text-anchor="middle">█</text><text x="302.00" y="96" text-anchor="middle">█</text><text x="318.50" y="96" text-anchor="middle">█</text><text x="335.00" y="96" text-anchor="middle">╗</text><text x="401.00" y="96" text-anchor="middle">█</text><text x="417.50" y="96" text-anchor="middle">█</text><text x="434.00" y="96" text-anchor="middle">║</text><text x="549.50" y="96" text-anchor="middle">█</text><text x="566.00" y="96" text-anchor="middle">█</text><text x="582.50" y="96" text-anchor="middle">║</text><text x="648.50" y="96" text-anchor="middle">█</text><text x="665.00" y="96" text-anchor="middle">█</text><text x="681.50" y="96" text-anchor="middle">█</text><text x="698.00" y="96" text-anchor="middle">█</text><text x="714.50" y="96" text-anchor="middle">█</text><text x="731.00" y="96" text-anchor="middle">█</text><text x="747.50" y="96" text-anchor="middle">╔</text><text x="764.00" y="96" text-anchor="middle">╝</text><text x="780.50" y="96" text-anchor="middle">█</text><text x="797.00" y="96" text-anchor="middle">█</text><text x="813.50" y="96" text-anchor="middle">║</text><text x="830.00" y="96" text-anchor="middle">█</text><text x="846.50" y="96" text-anchor="middle">█</text><text x="863.00" y="96" text-anchor="middle">╔</text><text x="879.50" y="96" text-anchor="middle">█</text><text x="896.00" y="96" text-anchor="middle">█</text><text x="912.50" y="96" text-anchor="middle">║</text><text x="87.50" y="125" text-anchor="middle">█</text><text x="104.00" y="125" text-anchor="middle">█</text><text x="120.50" y="125" text-anchor="middle">╔</text><text x="137.00" y="125" text-anchor="middle">═</text><text x="153.50" y="125" text-anchor="middle">═</text><text x="170.00" y="125" text-anchor="middle">█</text><text x="186.50" y="125" text-anchor="middle">█</text><text x="203.00" y="125" text-anchor="middle">║</text><text x="219.50" y="125" text-anchor="middle">╚</text><text x="236.00" y="125" text-anchor="middle">═</text><text x="252.50" y="125" text-anchor="middle">═</text><text x="269.00" y="125" text-anchor="middle">═</text><text x="285.50" y="125" text-anchor="middle">═</text><text x="302.00" y="125" text-anchor="middle">█</text><text x="318.50" y="125" text-anchor="middle">█</text><text x="335.00" y="125" text-anchor="middle">║</text><text x="401.00" y="125" text-anchor="middle">█</text><text x="417.50" y="125" text-anchor="middle">█</text><text x="434.00" y="125" text-anchor="middle">║</text><text x="549.50" y="125" text-anchor="middle">█</text><text x="566.00" y="125" text-anchor="middle">█</text><text x="582.50" y="125" text-anchor="middle">║</text><text x="648.50" y="125" text-anchor="middle">█</text><text x="665.00" y="125" text-anchor="middle">█</text><text x="681.50" y="125" text-anchor="middle">╔</text><text x="698.00" y="125" text-anchor="middle">═</text><text x="714.50" y="125" text-anchor="middle">═</text><text x="731.00" y="125" text-anchor="middle">█</text><text x="747.50" y="125" text-anchor="middle">█</text><text x="764.00" y="125" text-anchor="middle">╗</text><text x="780.50" y="125" text-anchor="middle">█</text><text x="797.00" y="125" text-anchor="middle">█</text><text x="813.50" y="125" text-anchor="middle">█</text><text x="830.00" y="125" text-anchor="middle">█</text><text x="846.50" y="125" text-anchor="middle">╔</text><text x="863.00" y="125" text-anchor="middle">╝</text><text x="879.50" y="125" text-anchor="middle">█</text><text x="896.00" y="125" text-anchor="middle">█</text><text x="912.50" y="125" text-anchor="middle">║</text><text x="87.50" y="154" text-anchor="middle">█</text><text x="104.00" y="154" text-anchor="middle">█</text><text x="120.50" y="154" text-anchor="middle">║</text><text x="170.00" y="154" text-anchor="middle">█</text><text x="186.50" y="154" text-anchor="middle">█</text><text x="203.00" y="154" text-anchor="middle">║</text><text x="219.50" y="154" text-anchor="middle">█</text><text x="236.00" y="154" text-anchor="middle">█</text><text x="252.50" y="154" text-anchor="middle">█</text><text x="269.00" y="154" text-anchor="middle">█</text><text x="285.50" y="154" text-anchor="middle">█</text><text x="302.00" y="154" text-anchor="middle">█</text><text x="318.50" y="154" text-anchor="middle">█</text><text x="335.00" y="154" text-anchor="middle">║</text><text x="401.00" y="154" text-anchor="middle">█</text><text x="417.50" y="154" text-anchor="middle">█</text><text x="434.00" y="154" text-anchor="middle">║</text><text x="549.50" y="154" text-anchor="middle">█</text><text x="566.00" y="154" text-anchor="middle">█</text><text x="582.50" y="154" text-anchor="middle">║</text><text x="648.50" y="154" text-anchor="middle">█</text><text x="665.00" y="154" text-anchor="middle">█</text><text x="681.50" y="154" text-anchor="middle">║</text><text x="731.00" y="154" text-anchor="middle">█</text><text x="747.50" y="154" text-anchor="middle">█</text><text x="764.00" y="154" text-anchor="middle">║</text><text x="780.50" y="154" text-anchor="middle">╚</text><text x="797.00" y="154" text-anchor="middle">█</text><text x="813.50" y="154" text-anchor="middle">█</text><text x="830.00" y="154" text-anchor="middle">█</text><text x="846.50" y="154" text-anchor="middle">█</text><text x="863.00" y="154" text-anchor="middle">█</text><text x="879.50" y="154" text-anchor="middle">█</text><text x="896.00" y="154" text-anchor="middle">╔</text><text x="912.50" y="154" text-anchor="middle">╝</text><text x="87.50" y="183" text-anchor="middle">╚</text><text x="104.00" y="183" text-anchor="middle">═</text><text x="120.50" y="183" text-anchor="middle">╝</text><text x="170.00" y="183" text-anchor="middle">╚</text><text x="186.50" y="183" text-anchor="middle">═</text><text x="203.00" y="183" text-anchor="middle">╝</text><text x="219.50" y="183" text-anchor="middle">╚</text><text x="236.00" y="183" text-anchor="middle">═</text><text x="252.50" y="183" text-anchor="middle">═</text><text x="269.00" y="183" text-anchor="middle">═</text><text x="285.50" y="183" text-anchor="middle">═</text><text x="302.00" y="183" text-anchor="middle">═</text><text x="318.50" y="183" text-anchor="middle">═</text><text x="335.00" y="183" text-anchor="middle">╝</text><text x="401.00" y="183" text-anchor="middle">╚</text><text x="417.50" y="183" text-anchor="middle">═</text><text x="434.00" y="183" text-anchor="middle">╝</text><text x="549.50" y="183" text-anchor="middle">╚</text><text x="566.00" y="183" text-anchor="middle">═</text><text x="582.50" y="183" text-anchor="middle">╝</text><text x="648.50" y="183" text-anchor="middle">╚</text><text x="665.00" y="183" text-anchor="middle">═</text><text x="681.50" y="183" text-anchor="middle">╝</text><text x="731.00" y="183" text-anchor="middle">╚</text><text x="747.50" y="183" text-anchor="middle">═</text><text x="764.00" y="183" text-anchor="middle">╝</text><text x="797.00" y="183" text-anchor="middle">╚</text><text x="813.50" y="183" text-anchor="middle">═</text><text x="830.00" y="183" text-anchor="middle">═</text><text x="846.50" y="183" text-anchor="middle">═</text><text x="863.00" y="183" text-anchor="middle">═</text><text x="879.50" y="183" text-anchor="middle">═</text><text x="896.00" y="183" text-anchor="middle">╝</text></g>
    <clipPath id="glitchTop"><rect x="0" y="48" width="1000" height="23"/></clipPath>
    <clipPath id="glitchBottom"><rect x="0" y="134" width="1000" height="20"/></clipPath>
    <style>
      .cyan{color:#00d9ff;transform:translate(-2px,2px);animation:cyan 5.8s steps(1,end) infinite}
      .yellow{color:#ffe600;transform:translate(2px,1px);animation:yellow 6.3s steps(1,end) infinite}
      .magenta{color:#ff2d9b;transform:translate(3px,3px);animation:magenta 7.1s steps(1,end) infinite}
      .main{color:#f4f7fb;animation:flicker 8s steps(1,end) infinite}
      .sliceA,.sliceB{color:#f4f7fb;opacity:0;animation:glitch 6.7s steps(1,end) infinite}
      .sliceB{animation-delay:-2.2s}
      @keyframes cyan{0%,94%,100%{transform:translate(-2px,2px)}95%{transform:translate(-4px,2px)}96%{transform:translate(-1px,2px)}}
      @keyframes yellow{0%,91%,100%{transform:translate(2px,1px)}92%{transform:translate(4px,1px)}93%{transform:translate(1px,1px)}}
      @keyframes magenta{0%,96%,100%{transform:translate(3px,3px)}97%{transform:translate(5px,3px)}98%{transform:translate(2px,3px)}}
      @keyframes flicker{0%,18%,20%,71%,73%,100%{opacity:1}19%,72%{opacity:.86}}
      @keyframes glitch{0%,93%,97%,100%{opacity:0;transform:translateX(0)}94%{opacity:.85;transform:translateX(-8px)}95%{opacity:.6;transform:translateX(6px)}96%{opacity:0}}
      @media (prefers-reduced-motion:reduce){.cyan,.yellow,.magenta,.main,.sliceA,.sliceB{animation:none}}
    </style>
  </defs>
  <rect width="1000" height="205" fill="#0d1117"/>
  <use href="#ascii" class="cyan"/><use href="#ascii" class="yellow"/><use href="#ascii" class="magenta"/><use href="#ascii" class="main"/>
  <use href="#ascii" class="sliceA" clip-path="url(#glitchTop)"/><use href="#ascii" class="sliceB" clip-path="url(#glitchBottom)"/>
  <rect width="1000" height="205" fill="url(#scanlines)"/>
</svg>